<svg width="133" height="37" fill="none" xmlns="http://www.w3.org/2000/svg"><path d="M4.6 9.4V22h-.96V9.04c0-.768-.168-1.36-.504-1.776-.32-.416-.872-.624-1.656-.624h-.24v-.48H2.8c.736 0 1.36.12 1.872.36s.968.6 1.368 1.08l8.4 10.44V6.16h.96v16.08h-.48L4.6 9.4zm27.617 12.72c-.768 0-1.528-.208-2.28-.624-.752-.432-1.352-1.264-1.8-2.496l-.6-1.56h-6.72L18.897 22h-1.08l6.72-15.84h.72L30.537 19c.4.928.776 1.568 1.128 1.92.352.336.856.536 1.512.6V22c-.288.08-.608.12-.96.12zm-11.04-5.64h5.88l-2.88-6.96-3 6.96zM36.82 22c-.592 0-1.04-.072-1.344-.216-.288-.16-.496-.44-.624-.84-.128-.4-.192-1.008-.192-1.824V6.16h2.16v12.96c0 .816.112 1.424.336 1.824.224.384.672.576 1.344.576h.48V22h-2.16zm5.092-12.96c0-.816-.112-1.416-.336-1.8-.224-.4-.672-.6-1.344-.6h-.48v-.48h2.16c.592 0 1.032.08 1.32.24.304.144.52.416.648.816.128.4.192 1.008.192 1.824v12h8.52V22h-10.68V9.04zm17.607 13.368c-.88 0-1.744-.12-2.592-.36-.848-.24-1.544-.584-2.088-1.032-.528-.448-.792-.96-.792-1.536v-2.568h.432c.272 1.6.8 2.76 1.584 3.48.784.704 1.864 1.056 3.24 1.056.864 0 1.6-.216 2.208-.648.624-.432.936-1.032.936-1.8 0-.672-.208-1.256-.624-1.752-.416-.496-1.088-1.016-2.016-1.56l-2.952-1.752c-1.024-.608-1.752-1.224-2.184-1.848-.416-.624-.624-1.384-.624-2.28 0-1.232.424-2.216 1.272-2.952.864-.752 1.992-1.128 3.384-1.128.816 0 1.624.12 2.424.36.8.224 1.456.56 1.968 1.008.528.432.792.936.792 1.512v2.568h-.432c-.272-1.6-.792-2.744-1.56-3.432-.752-.704-1.816-1.056-3.192-1.056-.736 0-1.384.224-1.944.672-.56.448-.84 1.032-.84 1.752 0 .656.2 1.2.6 1.632.416.432 1.104.936 2.064 1.512l2.952 1.752c1.088.656 1.856 1.264 2.304 1.824.448.56.672 1.272.672 2.136 0 1.344-.448 2.424-1.344 3.24-.896.8-2.112 1.2-3.648 1.2zm26.213.672c-1.152 0-2.048-.176-2.688-.528-.64-.352-1.096-.896-1.368-1.632-.256-.752-.384-1.752-.384-3V8.68l-6 13.32h-.48L68.57 8.44V22h-.96V6.16h2.28l5.76 12.48 5.64-12.48h2.16v11.76c0 1.488.184 2.64.552 3.456.384.816.96 1.224 1.728 1.224v.48zm15.275-.96c-.768 0-1.528-.208-2.28-.624-.752-.432-1.352-1.264-1.8-2.496l-.6-1.56h-6.72L87.686 22h-1.08l6.72-15.84h.72L99.326 19c.4.928.776 1.568 1.128 1.92.352.336.856.536 1.512.6V22c-.288.08-.608.12-.96.12zm-11.04-5.64h5.88l-2.88-6.96-3 6.96zm13.891-7.44c0-.816-.112-1.416-.336-1.8-.224-.4-.672-.6-1.344-.6h-.48v-.48h6.288c3.104 0 5.448.688 7.032 2.064 1.6 1.376 2.4 3.296 2.4 5.76 0 1.584-.336 2.984-1.008 4.2-.672 1.2-1.672 2.136-3 2.808-1.312.672-2.912 1.008-4.8 1.008h-4.752V9.04zm4.68 12.12c1.184 0 2.248-.288 3.192-.864.96-.592 1.712-1.416 2.255-2.472.545-1.072.817-2.32.817-3.744 0-1.392-.272-2.624-.817-3.696-.527-1.072-1.271-1.904-2.231-2.496-.96-.592-2.048-.888-3.264-.888-.768 0-1.568.128-2.4.384v13.464c.896.208 1.712.312 2.448.312zM120.85 9.04c0-.816-.112-1.416-.336-1.8-.224-.4-.672-.6-1.344-.6h-.48v-.48h10.224c1.36 0 2.04.64 2.04 1.92v1.8h-.48c0-1.84-1-2.76-3-2.76h-4.464v6.24h6.48v.96h-6.48v6.72h4.2c1.104 0 1.968-.2 2.592-.6.624-.4 1.12-1.08 1.488-2.04l.48.12-.84 2.28c-.288.8-.888 1.2-1.8 1.2h-8.28V9.04zM1.81 29.57c-.167-.387-.323-.65-.47-.79-.147-.147-.357-.233-.63-.26v-.2c.033 0 .083-.003.15-.01a1.925 1.925 0 011.15.25c.307.167.567.503.78 1.01L4.5 33.6l.59-1.37c.28-.647.817-1.923 1.61-3.83h.48l-2.87 6.7h-.18l-2.32-5.53zm9.336.13a.52.52 0 01-.4-.19.676.676 0 01-.16-.45c0-.14.04-.25.12-.33.087-.08.2-.12.34-.12a.49.49 0 01.39.19.65.65 0 01.17.45.427.427 0 01-.46.45zm-.38 1.8c0-.34-.046-.59-.14-.75-.093-.167-.28-.25-.56-.25h-.2v-.2h.9c.247 0 .43.033.55.1.127.06.217.173.27.34.054.167.08.42.08.76V35h-.9v-3.5zm8.469 3.6c-.567 0-1.05-.267-1.45-.8l-1.2-1.6V35h-.9v-5.4c0-.34-.047-.59-.14-.75-.094-.167-.28-.25-.56-.25h-.2v-.2h.9c.246 0 .43.033.55.1.127.06.216.173.27.34.053.167.08.42.08.76v2.95l1.25-1.6c.173-.213.357-.373.55-.48.193-.113.443-.17.75-.17h.3v.25c-.18 0-.354.037-.52.11a1.11 1.11 0 00-.43.34l-1.1 1.4 1.25 1.6c.193.253.373.443.54.57.173.127.36.207.56.24V35a1.19 1.19 0 01-.5.1zm5.193 0c-.373 0-.666-.107-.88-.32-.213-.213-.32-.54-.32-.98v-3.1h-.7v-.4h.7v-.9l.5-.6h.4v1.5h1.2v.4h-1.2v3.1c0 .6.234.9.7.9.16 0 .294-.017.4-.05.114-.033.23-.083.35-.15l.1.2a2.53 2.53 0 01-.51.29c-.186.073-.433.11-.74.11zm6.42 0c-.454 0-.847-.107-1.18-.32a2.104 2.104 0 01-.76-.89 2.908 2.908 0 01-.26-1.24c0-.453.086-.867.26-1.24.173-.373.426-.667.76-.88.333-.22.726-.33 1.18-.33.453 0 .846.11 1.18.33.333.213.586.507.76.88.173.373.26.787.26 1.24 0 .453-.087.867-.26 1.24-.174.373-.427.67-.76.89-.334.213-.727.32-1.18.32zm0-.4a.91.91 0 00.65-.27c.193-.18.34-.427.44-.74.106-.313.16-.66.16-1.04s-.054-.727-.16-1.04c-.1-.313-.247-.56-.44-.74a.908.908 0 00-.65-.27.942.942 0 00-.66.27c-.187.18-.334.427-.44.74-.1.313-.15.66-.15 1.04s.05.727.15 1.04c.106.313.253.56.44.74.193.18.413.27.66.27zm5.952-3.2c0-.34-.047-.59-.14-.75-.093-.167-.28-.25-.56-.25H36v-.2h.8c.253 0 .443.037.57.11.133.067.227.18.28.34h.05c.12-.153.28-.283.48-.39.207-.107.447-.16.72-.16.267 0 .467.05.6.15.113.087.23.237.35.45l-.4.3a.63.63 0 00-.32-.22 1.35 1.35 0 00-.48-.08c-.2 0-.383.047-.55.14-.167.087-.3.207-.4.36V35h-.9v-3.5zm6.925-1.8a.52.52 0 01-.4-.19.676.676 0 01-.16-.45c0-.14.04-.25.12-.33a.48.48 0 01.34-.12c.153 0 .283.063.39.19.113.127.17.277.17.45a.427.427 0 01-.46.45zm-.38 1.8c0-.34-.047-.59-.14-.75-.094-.167-.28-.25-.56-.25h-.2v-.2h.9c.246 0 .43.033.55.1.126.06.216.173.27.34.053.167.08.42.08.76V35h-.9v-3.5zm5.93 3.6a1.76 1.76 0 01-.65-.13 1.416 1.416 0 01-.57-.45c-.153-.207-.23-.48-.23-.82 0-.507.234-.867.7-1.08.474-.213 1.09-.32 1.85-.32h.3c0-.653-.09-1.1-.27-1.34-.18-.24-.44-.36-.78-.36-.3 0-.54.063-.72.19-.18.127-.306.347-.38.66h-.45c0-.227.014-.403.04-.53a.723.723 0 01.21-.37c.12-.12.317-.207.59-.26.28-.06.584-.09.91-.09.54 0 .967.147 1.28.44.314.287.47.84.47 1.66V35h-.5l-.35-.45h-.05a1.39 1.39 0 01-.53.39c-.233.107-.523.16-.87.16zm.45-.45a.91.91 0 00.55-.16c.147-.107.28-.253.4-.44V32.7h-.3c-.493 0-.883.093-1.17.28-.286.18-.43.42-.43.72 0 .307.09.543.27.71.187.16.414.24.68.24zm16.235.45c-.313 0-.64-.083-.98-.25-.34-.173-.73-.49-1.17-.95l-2.1-2.2V35h-.9v-5.4c0-.34-.047-.59-.14-.75-.093-.167-.28-.25-.56-.25h-.2v-.2h.9c.247 0 .43.033.55.1.127.06.217.173.27.34.053.167.08.42.08.76v1.95l2.1-2.1.2-.21c.187-.193.343-.343.47-.45.127-.113.277-.207.45-.28a1.48 1.48 0 01.58-.11h.5v.25c-.28 0-.523.05-.73.15-.207.093-.447.277-.72.55l-1.95 1.95 2.3 2.4c.293.3.59.553.89.76.3.2.57.317.81.35V35c-.2.067-.417.1-.65.1zm5.331 0c-.5 0-.91-.133-1.23-.4-.313-.267-.47-.733-.47-1.4v-1.8c0-.34-.046-.59-.14-.75-.093-.167-.28-.25-.56-.25h-.1v-.2h.8c.247 0 .43.033.55.1.127.06.217.173.27.34.054.167.08.42.08.76v1.8c0 .467.104.81.31 1.03.214.213.477.32.79.32.354 0 .687-.177 1-.53V30.3h.9V35h-.5l-.35-.4h-.05c-.14.14-.323.26-.55.36-.22.093-.47.14-.75.14zm5.862-.29l2.6-4.11h-1.15c-.413 0-.727.08-.94.24-.207.153-.31.373-.31.66h-.2v-.5c0-.533.283-.8.85-.8h3.05l-2.7 4.3h2.7v.4h-3.9v-.19zm7.588-3.31c0-.34-.047-.59-.14-.75-.093-.167-.28-.25-.56-.25h-.2v-.2h.9c.247 0 .433.033.56.1.133.067.23.167.29.3h.05c.14-.14.32-.257.54-.35.227-.1.48-.15.76-.15.5 0 .907.133 1.22.4.32.267.48.733.48 1.4v3h-.9v-3c0-.467-.107-.807-.32-1.02a1.025 1.025 0 00-.78-.33c-.353 0-.687.177-1 .53V35h-.9v-3.5zm9.62 3.6c-.454 0-.837-.107-1.15-.32a2.055 2.055 0 01-.71-.88c-.16-.373-.24-.79-.24-1.25 0-.453.08-.867.24-1.24.16-.373.39-.667.69-.88.306-.22.663-.33 1.07-.33.673 0 1.173.19 1.5.57.333.373.5.917.5 1.63l-.02.4h-3.03c0 .56.12 1.017.36 1.37.24.353.57.53.99.53.313 0 .576-.067.79-.2a2.07 2.07 0 00.61-.6l.2.15c-.22.367-.477.633-.77.8-.294.167-.637.25-1.03.25zm.95-2.7c0-.587-.087-1.033-.26-1.34a.85.85 0 00-.79-.46c-.2 0-.38.08-.54.24-.16.153-.287.367-.38.64-.087.273-.13.58-.13.92h2.1zm5.992 2.7c-.373 0-.666-.107-.88-.32-.213-.213-.32-.54-.32-.98v-3.1h-.7v-.4h.7v-.9l.5-.6h.4v1.5h1.2v.4h-1.2v3.1c0 .6.234.9.7.9.16 0 .294-.017.4-.05.114-.033.23-.083.35-.15l.1.2a2.53 2.53 0 01-.51.29c-.186.073-.433.11-.74.11zm6.059 0c-.766 0-1.283-.133-1.55-.4a.728.728 0 01-.21-.38 4.164 4.164 0 01-.04-.67h.2c.06.333.204.593.43.78.234.18.557.27.97.27.367 0 .64-.063.82-.19a.587.587 0 00.28-.51.667.667 0 00-.22-.5c-.14-.14-.366-.273-.68-.4l-.6-.25c-.4-.16-.7-.347-.9-.56-.2-.213-.3-.477-.3-.79 0-.407.154-.723.46-.95.307-.233.704-.35 1.19-.35.734 0 1.234.133 1.5.4.114.113.184.24.21.38.027.14.04.363.04.67h-.2c-.053-.333-.193-.59-.42-.77-.226-.187-.536-.28-.93-.28-.313 0-.56.067-.74.2a.592.592 0 00-.26.5c0 .347.267.63.8.85l.6.25c.454.187.784.387.99.6.207.207.31.473.31.8 0 .407-.163.727-.49.96-.326.227-.746.34-1.26.34zm7.323 0c-.453 0-.847-.107-1.18-.32a2.105 2.105 0 01-.76-.89 2.914 2.914 0 01-.26-1.24c0-.453.087-.867.26-1.24a2.04 2.04 0 01.76-.88c.333-.22.727-.33 1.18-.33.453 0 .847.11 1.18.33.333.213.587.507.76.88.173.373.26.787.26 1.24 0 .453-.087.867-.26 1.24-.173.373-.427.67-.76.89-.333.213-.727.32-1.18.32zm0-.4c.247 0 .463-.09.65-.27.193-.18.34-.427.44-.74.107-.313.16-.66.16-1.04s-.053-.727-.16-1.04c-.1-.313-.247-.56-.44-.74a.908.908 0 00-.65-.27.941.941 0 00-.66.27c-.187.18-.333.427-.44.74-.1.313-.15.66-.15 1.04s.05.727.15 1.04c.107.313.253.56.44.74.193.18.413.27.66.27zm6.016-3.25c-.16-.373-.313-.633-.46-.78a.834.834 0 00-.58-.25v-.2c.033 0 .08-.003.14-.01.067-.007.133-.01.2-.01.353 0 .673.09.96.27.287.173.533.5.74.98l.9 2.15 1.4-3.3h.5l-2.05 4.8h-.2l-1.55-3.65zm8.321 3.65c-.214 0-.43-.043-.65-.13a1.416 1.416 0 01-.57-.45c-.154-.207-.23-.48-.23-.82 0-.507.233-.867.7-1.08.473-.213 1.09-.32 1.85-.32h.3c0-.653-.09-1.1-.27-1.34-.18-.24-.44-.36-.78-.36-.3 0-.54.063-.72.19-.18.127-.307.347-.38.66h-.45c0-.227.013-.403.04-.53a.713.713 0 01.21-.37c.12-.12.316-.207.59-.26.28-.06.583-.09.91-.09.54 0 .966.147 1.28.44.313.287.47.84.47 1.66V35h-.5l-.35-.45h-.05a1.4 1.4 0 01-.53.39c-.234.107-.524.16-.87.16zm.45-.45c.22 0 .403-.053.55-.16.146-.107.28-.253.4-.44V32.7h-.3c-.494 0-.884.093-1.17.28-.287.18-.43.42-.43.72 0 .307.09.543.27.71.186.16.413.24.68.24z" fill="#1C1B1B"/></svg>