<svg width="60" height="60" fill="none" xmlns="http://www.w3.org/2000/svg"><path d="M16.667 0a9.167 9.167 0 110 18.334 9.167 9.167 0 010-18.334zm0 3.333a5.833 5.833 0 100 11.667 5.833 5.833 0 000-11.667zm2.276 18.334H5a5 5 0 00-5 5v1.666c0 5.29 4.02 10.707 11.05 12.614a8.38 8.38 0 012.603-2.844C7 37.047 3.333 32.53 3.333 28.333v-1.666A1.666 1.666 0 015 25h12.75c.24-1.18.647-2.3 1.193-3.333zM30 18.333A9.147 9.147 0 0021.18 25a9.173 9.173 0 007.533 11.577 18.208 18.208 0 012.204-3.317 5.833 5.833 0 114.64-3.977 18.25 18.25 0 013.61-1.666V27.5a9.177 9.177 0 00-2.097-5.833A9.15 9.15 0 0030 18.333zm28.923 14.74a18.432 18.432 0 00-2.6-2.493c.227-.743.344-1.5.344-2.247v-1.666A1.666 1.666 0 0055 25H42.25a12.419 12.419 0 00-1.19-3.333H55a5 5 0 015 5v1.666c0 1.6-.367 3.214-1.077 4.74zM27.357 40h-9.024a4.987 4.987 0 00-5 5v1.667C13.333 53.237 19.533 60 30 60a22.22 22.22 0 003.98-.35 18.454 18.454 0 01-3.137-3c-.28.011-.562.017-.843.017-8.56 0-13.333-5.207-13.333-10V45a1.667 1.667 0 011.666-1.667h8.407c.102-1.127.308-2.243.617-3.333zM52.5 9.167a9.167 9.167 0 10-18.333 0 9.167 9.167 0 0018.333 0zm-15 0a5.834 5.834 0 1111.667 0 5.834 5.834 0 01-11.667 0zM45 60a15 15 0 100-30 15 15 0 000 30zm0-23.333a1.667 1.667 0 011.667 1.666v5h5a1.667 1.667 0 010 3.334h-5v5a1.667 1.667 0 01-3.334 0v-5h-5a1.667 1.667 0 010-3.334h5v-5A1.667 1.667 0 0145 36.667z" fill="#C7AB89"/></svg>