<svg width="60" height="46" viewBox="0 0 60 46" fill="none" xmlns="http://www.w3.org/2000/svg">
<path d="M59.8259 19.7145L51.5501 0.704938C51.3577 0.264549 51.035 0 50.6894 0H9.31056C8.96401 0 8.64229 0.264549 8.44988 0.704938L0.174104 19.7145C-0.037963 20.2008 -0.057618 20.825 0.12238 21.3398C0.302378 21.8563 0.653064 22.1778 1.03478 22.1778H7.24162V46H9.31056V22.1778H14.4829V31.6826H16.5519V22.1778H44.4826V31.6826H46.5516V22.1778H51.7239V46H53.7929V22.1778H58.9652C59.3469 22.1778 59.6976 21.8563 59.8776 21.3414C60.0576 20.825 60.038 20.2008 59.8259 19.7145ZM2.96821 19.0096L9.864 3.16826H50.136L57.0328 19.0096H2.96821Z" fill="#C7AB89"/>
</svg>
