<svg width="60" height="60" fill="none" xmlns="http://www.w3.org/2000/svg"><path d="M29.065.008c-1.222.035-2.482.17-3.74.36h-.072C12.993 2.373 3.063 12.03.57 24.253c-.743 3.481-.7 6.728-.214 9.93.019.007 0 .053 0 .07.755 5.405 7.77 7.772 11.728 3.814 2.832-2.832 7.022-2.832 9.856 0 2.832 2.832 2.832 7.022 0 9.856-3.958 3.957-1.591 10.972 3.812 11.727.019 0 .065-.018.072 0 3.177.484 6.405.514 9.858-.216h.071C48.011 57.15 57.643 46.988 59.64 34.76v-.074C62.248 17.095 49.387 1.735 32.66.15a28.11 28.11 0 00-3.596-.143h.002zm.072 4.605a25.257 25.257 0 013.094.071 25.54 25.54 0 0122.877 29.354c-1.68 10.307-9.945 18.975-20.216 20.865h-.071a22.758 22.758 0 01-8.42.214c-1.887-.232-2.76-2.348-1.22-3.883a11.596 11.596 0 00-3.763-18.92A11.594 11.594 0 008.776 34.83c-1.538 1.538-3.652.665-3.884-1.225a22.76 22.76 0 01.214-8.417C7.219 14.856 15.664 6.581 25.97 4.901a27.453 27.453 0 013.166-.288zm-3.742 4.676a4.604 4.604 0 100 9.209 4.604 4.604 0 000-9.21zm16.116 4.604a4.605 4.605 0 100 9.21 4.605 4.605 0 000-9.21zm-27.627 4.605a4.604 4.604 0 100 9.208 4.604 4.604 0 000-9.208zm32.232 11.511a4.605 4.605 0 100 9.21 4.605 4.605 0 000-9.21zm-9.21 11.511a4.605 4.605 0 100 9.21 4.605 4.605 0 000-9.21z" fill="#C7AB89"/></svg>