<svg width="62" height="62" viewBox="0 0 62 62" fill="none" xmlns="http://www.w3.org/2000/svg">
<path d="M30.9655 16.5517V0M47.5172 26.8966V47.5862C47.5172 50.8785 46.2094 54.036 43.8813 56.3641C41.5533 58.6921 38.3958 60 35.1034 60H14.4138C11.1215 60 7.96395 58.6921 5.63592 56.3641C3.30788 54.036 2 50.8785 2 47.5862V26.8966C2 25.7991 2.43596 24.7466 3.21197 23.9706C3.98798 23.1946 5.04048 22.7586 6.13793 22.7586H43.3793C44.4768 22.7586 45.5293 23.1946 46.3053 23.9706C47.0813 24.7466 47.5172 25.7991 47.5172 26.8966ZM47.5172 26.8966H55.7931C56.8905 26.8966 57.943 27.3325 58.7191 28.1085C59.4951 28.8845 59.931 29.937 59.931 31.0345V39.3103C59.931 40.4078 59.4951 41.4603 58.7191 42.2363C57.943 43.0123 56.8905 43.4483 55.7931 43.4483H47.5172V26.8966ZM18.5517 16.5517V8.27586V16.5517Z" stroke="#C7AB89" stroke-width="4"/>
</svg>
