<svg width="61" height="60" viewBox="0 0 61 60" fill="none" xmlns="http://www.w3.org/2000/svg">
<path d="M41.0632 0L39.5414 1.65899L35.8098 5.59631H27.8599V13.3383L24.0575 17.3486L22.5379 18.939L27.3777 23.7788L1.59041 49.6302L0 51.2206L1.59263 52.7403L8.84793 60L10.3698 58.4074L36.2234 32.6267L41.061 37.4643L42.6514 35.9425L46.6595 32.1423H54.4015V24.1924L58.3432 20.4586L60.0022 18.939L54.4015 13.3405V5.59853H46.6595L41.0632 0ZM41.1318 6.35723L44.1733 9.39871L44.8656 10.0225H49.9797V15.1366L50.6035 15.8289L53.645 18.8704L50.6721 21.704L49.9797 22.3255V27.7183H44.8656L44.2418 28.3399L41.1318 31.3128L39.3357 29.5145L49.3582 19.492L40.5788 10.7126L38.9906 12.2345L30.5563 20.7373L28.6894 18.8704L31.6623 15.7604L32.2839 15.1366V10.0225H37.6767L38.2982 9.33014L41.1318 6.35723ZM40.5788 16.9349L43.0673 19.492L8.85235 53.7777L6.29309 51.2206L40.5788 16.9349ZM36.9158 40.7823V42.9943H34.7038V47.4182H36.9158V49.6302H41.3397V47.4182H43.5517V42.9943H41.3397V40.7823H36.9158ZM50.1876 45.2063V49.6302H45.7637V54.0542H50.1876V58.4782H54.6116V54.0542H59.0356V49.6302H54.6116V45.2063H50.1876Z" fill="#C7AB89"/>
</svg>
