<svg width="60" height="60" viewBox="0 0 60 60" fill="none" xmlns="http://www.w3.org/2000/svg">
<path d="M16.6667 0C19.0978 0 21.4294 0.965771 23.1485 2.68485C24.8676 4.40394 25.8333 6.73552 25.8333 9.16667C25.8333 11.5978 24.8676 13.9294 23.1485 15.6485C21.4294 17.3676 19.0978 18.3333 16.6667 18.3333C14.2355 18.3333 11.9039 17.3676 10.1849 15.6485C8.46577 13.9294 7.5 11.5978 7.5 9.16667C7.5 6.73552 8.46577 4.40394 10.1849 2.68485C11.9039 0.965771 14.2355 0 16.6667 0ZM16.6667 3.33333C15.1196 3.33333 13.6358 3.94792 12.5419 5.04188C11.4479 6.13584 10.8333 7.61957 10.8333 9.16667C10.8333 10.7138 11.4479 12.1975 12.5419 13.2915C13.6358 14.3854 15.1196 15 16.6667 15C18.2138 15 19.6975 14.3854 20.7915 13.2915C21.8854 12.1975 22.5 10.7138 22.5 9.16667C22.5 7.61957 21.8854 6.13584 20.7915 5.04188C19.6975 3.94792 18.2138 3.33333 16.6667 3.33333ZM18.9433 21.6667H5C3.67392 21.6667 2.40215 22.1934 1.46447 23.1311C0.526784 24.0688 0 25.3406 0 26.6667V28.3333C0 33.6233 4.02 39.04 11.05 40.9467C11.6833 39.81 12.58 38.8333 13.6533 38.1033C7 37.0467 3.33333 32.53 3.33333 28.3333V26.6667C3.33333 26.2246 3.50893 25.8007 3.82149 25.4882C4.13405 25.1756 4.55797 25 5 25H17.75C17.99 23.82 18.3967 22.7 18.9433 21.6667ZM30 18.3333C28.0038 18.3299 26.0612 18.9795 24.4687 20.1832C22.8762 21.3869 21.7212 23.0785 21.18 25C20.8242 26.2588 20.7417 27.5791 20.9381 28.8724C21.1346 30.1657 21.6053 31.402 22.3187 32.4984C23.0322 33.5948 23.9719 34.526 25.0748 35.2293C26.1777 35.9327 27.4183 36.3921 28.7133 36.5767C29.3267 35.39 30.0667 34.2767 30.9167 33.26C29.805 33.4361 28.6662 33.2879 27.6367 32.8333C26.6064 32.3763 25.7306 31.6305 25.1151 30.6862C24.4997 29.7419 24.1711 28.6395 24.1689 27.5123C24.1668 26.3852 24.4912 25.2816 25.103 24.3349C25.7148 23.3883 26.5877 22.6391 27.6163 22.1781C28.6448 21.7171 29.7849 21.5639 30.8986 21.7371C32.0124 21.9103 33.0521 22.4025 33.8921 23.1541C34.732 23.9057 35.3362 24.8846 35.6317 25.9723C35.9271 27.0601 35.901 28.2101 35.5567 29.2833C36.6957 28.598 37.9062 28.0391 39.1667 27.6167V27.5C39.1655 25.3712 38.4243 23.3091 37.07 21.6667C35.39 19.6333 32.8467 18.3333 30 18.3333ZM58.9233 33.0733C58.1401 32.1593 57.2693 31.3242 56.3233 30.58C56.55 29.8367 56.6667 29.08 56.6667 28.3333V26.6667C56.6667 26.2246 56.4911 25.8007 56.1785 25.4882C55.866 25.1756 55.442 25 55 25H42.25C42.0145 23.8378 41.6138 22.7153 41.06 21.6667H55C56.3261 21.6667 57.5978 22.1934 58.5355 23.1311C59.4732 24.0688 60 25.3406 60 26.6667V28.3333C60 29.9333 59.6333 31.5467 58.9233 33.0733ZM27.3567 40H18.3333C17.6762 39.9982 17.0253 40.1264 16.4178 40.377C15.8104 40.6277 15.2585 40.9959 14.7939 41.4605C14.3292 41.9252 13.961 42.4771 13.7104 43.0845C13.4597 43.6919 13.3316 44.3429 13.3333 45V46.6667C13.3333 53.2367 19.5333 60 30 60C31.4033 60 32.7333 59.8767 33.98 59.65C32.8201 58.7769 31.7672 57.7699 30.8433 56.65C30.5624 56.6613 30.2812 56.6669 30 56.6667C21.44 56.6667 16.6667 51.46 16.6667 46.6667V45C16.6667 44.558 16.8423 44.134 17.1548 43.8215C17.4674 43.5089 17.8913 43.3333 18.3333 43.3333H26.74C26.8418 42.2055 27.0482 41.0896 27.3567 40ZM52.5 9.16667C52.5 6.73552 51.5342 4.40394 49.8151 2.68485C48.0961 0.965771 45.7645 0 43.3333 0C40.9022 0 38.5706 0.965771 36.8515 2.68485C35.1324 4.40394 34.1667 6.73552 34.1667 9.16667C34.1667 11.5978 35.1324 13.9294 36.8515 15.6485C38.5706 17.3676 40.9022 18.3333 43.3333 18.3333C45.7645 18.3333 48.0961 17.3676 49.8151 15.6485C51.5342 13.9294 52.5 11.5978 52.5 9.16667ZM37.5 9.16667C37.5 7.61957 38.1146 6.13584 39.2085 5.04188C40.3025 3.94792 41.7862 3.33333 43.3333 3.33333C44.8804 3.33333 46.3642 3.94792 47.4581 5.04188C48.5521 6.13584 49.1667 7.61957 49.1667 9.16667C49.1667 10.7138 48.5521 12.1975 47.4581 13.2915C46.3642 14.3854 44.8804 15 43.3333 15C41.7862 15 40.3025 14.3854 39.2085 13.2915C38.1146 12.1975 37.5 10.7138 37.5 9.16667ZM45 60C48.9782 60 52.7936 58.4196 55.6066 55.6066C58.4196 52.7936 60 48.9782 60 45C60 41.0218 58.4196 37.2064 55.6066 34.3934C52.7936 31.5804 48.9782 30 45 30C41.0218 30 37.2064 31.5804 34.3934 34.3934C31.5804 37.2064 30 41.0218 30 45C30 48.9782 31.5804 52.7936 34.3934 55.6066C37.2064 58.4196 41.0218 60 45 60ZM45 36.6667C45.442 36.6667 45.866 36.8423 46.1785 37.1548C46.4911 37.4674 46.6667 37.8913 46.6667 38.3333V43.3333H51.6667C52.1087 43.3333 52.5326 43.5089 52.8452 43.8215C53.1577 44.134 53.3333 44.558 53.3333 45C53.3333 45.442 53.1577 45.866 52.8452 46.1785C52.5326 46.4911 52.1087 46.6667 51.6667 46.6667H46.6667V51.6667C46.6667 52.1087 46.4911 52.5326 46.1785 52.8452C45.866 53.1577 45.442 53.3333 45 53.3333C44.558 53.3333 44.134 53.1577 43.8215 52.8452C43.5089 52.5326 43.3333 52.1087 43.3333 51.6667V46.6667H38.3333C37.8913 46.6667 37.4674 46.4911 37.1548 46.1785C36.8423 45.866 36.6667 45.442 36.6667 45C36.6667 44.558 36.8423 44.134 37.1548 43.8215C37.4674 43.5089 37.8913 43.3333 38.3333 43.3333H43.3333V38.3333C43.3333 37.8913 43.5089 37.4674 43.8215 37.1548C44.134 36.8423 44.558 36.6667 45 36.6667Z" fill="#C7AB89"/>
</svg>
