<?xml version="1.0" encoding="utf-8"?><svg xmlns="http://www.w3.org/2000/svg" xmlns:xlink="http://www.w3.org/1999/xlink"><symbol viewBox="0 0 23 22" fill="none" id="arrow-forward" xmlns="http://www.w3.org/2000/svg"><path d="M22 10l-7-9v5C3.047 6 1.668 15.678 2 21c.502-2.685.735-7 13-7v5l7-9z"/></symbol><symbol fill="none" viewBox="0 0 62 62" id="coffe" xmlns="http://www.w3.org/2000/svg"><path d="M30.965 16.552V0m16.552 26.897v20.69A12.414 12.414 0 0135.103 60h-20.69A12.414 12.414 0 012 47.586v-20.69a4.138 4.138 0 014.138-4.137h37.241a4.138 4.138 0 014.138 4.138zm0 0h8.276a4.138 4.138 0 014.138 4.138v8.275a4.138 4.138 0 01-4.138 4.138h-8.276V26.897zM18.552 16.552V8.276v8.276z" stroke="#C7AB89" stroke-width="4"/></symbol><symbol viewBox="0 0 15 28" id="facebook" xmlns="http://www.w3.org/2000/svg"><path d="M11.254 0C7.312 0 5 2.082 5 6.826V11H0v5h5v12h5V16h4l1-5h-5V7.672C10 5.885 10.583 5 12.26 5H15V.205C14.526.141 13.145 0 11.254 0z"/></symbol><symbol viewBox="0 0 22 22" id="instagram" xmlns="http://www.w3.org/2000/svg"><path fill-rule="evenodd" clip-rule="evenodd" d="M6.465.066C7.638.012 8.012 0 11 0c2.988 0 3.362.013 4.534.066 1.172.053 1.972.24 2.672.511.733.277 1.398.71 1.948 1.27.56.549.992 1.213 1.268 1.947.272.7.458 1.5.512 2.67C21.988 7.639 22 8.013 22 11c0 2.988-.013 3.362-.066 4.535-.053 1.17-.24 1.97-.512 2.67a5.396 5.396 0 01-1.268 1.949c-.55.56-1.215.992-1.948 1.268-.7.272-1.5.458-2.67.512-1.174.054-1.548.066-4.536.066-2.988 0-3.362-.013-4.535-.066-1.17-.053-1.97-.24-2.67-.512a5.396 5.396 0 01-1.949-1.268 5.392 5.392 0 01-1.269-1.948c-.271-.7-.457-1.5-.511-2.67C.012 14.361 0 13.987 0 11c0-2.988.013-3.362.066-4.534.053-1.172.24-1.972.511-2.672a5.396 5.396 0 011.27-1.948A5.392 5.392 0 013.794.577c.7-.271 1.5-.457 2.67-.511h.001zm8.98 1.98c-1.16-.053-1.508-.064-4.445-.064-2.937 0-3.285.011-4.445.064-1.073.049-1.655.228-2.043.379-.513.2-.88.437-1.265.822a3.412 3.412 0 00-.822 1.265c-.151.388-.33.97-.379 2.043-.053 1.16-.064 1.508-.064 4.445 0 2.937.011 3.285.064 4.445.049 1.073.228 1.655.379 2.043.176.477.457.91.822 1.265.355.365.788.646 1.265.822.388.151.97.33 2.043.379 1.16.053 1.507.064 4.445.064 2.938 0 3.285-.011 4.445-.064 1.073-.049 1.655-.228 2.043-.379.513-.2.88-.437 1.265-.822.365-.355.646-.788.822-1.265.151-.388.33-.97.379-2.043.053-1.16.064-1.508.064-4.445 0-2.937-.011-3.285-.064-4.445-.049-1.073-.228-1.655-.379-2.043-.2-.513-.437-.88-.822-1.265a3.413 3.413 0 00-1.265-.822c-.388-.151-.97-.33-2.043-.379zm-5.85 12.345a3.67 3.67 0 102.641-6.846 3.67 3.67 0 00-2.641 6.846zM7.002 7.002a5.654 5.654 0 117.996 7.996 5.654 5.654 0 01-7.996-7.996zm10.906-.814a1.336 1.336 0 10-1.834-1.944 1.336 1.336 0 001.834 1.944z"/></symbol><symbol fill="none" viewBox="0 0 61 60" id="magic" xmlns="http://www.w3.org/2000/svg"><path d="M41.063 0l-1.522 1.659-3.731 3.937h-7.95v7.742l-3.802 4.01-1.52 1.591 4.84 4.84L1.59 49.63 0 51.22l1.593 1.52L8.848 60l1.522-1.593 25.853-25.78 4.838 4.837 1.59-1.521 4.008-3.8h7.742v-7.95l3.942-3.734 1.66-1.52-5.602-5.598V5.599H46.66L41.064 0zm.069 6.357L44.173 9.4l.693.624h5.114v5.114l.623.692 3.042 3.041-2.973 2.834-.692.622v5.392h-5.114l-.624.622-3.11 2.973-1.796-1.798 10.022-10.023-8.78-8.78-1.587 1.523-8.435 8.502-1.867-1.867 2.973-3.11.622-.623v-5.114h5.393l.621-.693 2.834-2.973zm-.553 10.578l2.488 2.557L8.852 53.778 6.293 51.22 40.58 16.935zm-3.663 23.847v2.212h-2.212v4.424h2.212v2.212h4.424v-2.212h2.212v-4.424H41.34v-2.212h-4.424zm13.272 4.424v4.424h-4.424v4.424h4.424v4.424h4.424v-4.424h4.424V49.63h-4.424v-4.424h-4.424z" fill="#C7AB89"/></symbol><symbol fill="none" viewBox="0 0 60 60" id="palette" xmlns="http://www.w3.org/2000/svg"><path d="M29.065.008c-1.222.035-2.482.17-3.74.36h-.072C12.993 2.373 3.063 12.03.57 24.253c-.743 3.481-.7 6.728-.214 9.93.019.007 0 .053 0 .07.755 5.405 7.77 7.772 11.728 3.814 2.832-2.832 7.022-2.832 9.856 0 2.832 2.832 2.832 7.022 0 9.856-3.958 3.957-1.591 10.972 3.812 11.727.019 0 .065-.018.072 0 3.177.484 6.405.514 9.858-.216h.071C48.011 57.15 57.643 46.988 59.64 34.76v-.074C62.248 17.095 49.387 1.735 32.66.15a28.11 28.11 0 00-3.596-.143h.002zm.072 4.605a25.257 25.257 0 013.094.071 25.54 25.54 0 0122.877 29.354c-1.68 10.307-9.945 18.975-20.216 20.865h-.071a22.758 22.758 0 01-8.42.214c-1.887-.232-2.76-2.348-1.22-3.883a11.596 11.596 0 00-3.763-18.92A11.594 11.594 0 008.776 34.83c-1.538 1.538-3.652.665-3.884-1.225-.453-2.794-.38-5.649.214-8.417C7.219 14.856 15.664 6.581 25.97 4.901a27.453 27.453 0 013.166-.288zm-3.742 4.676a4.604 4.604 0 100 9.209 4.604 4.604 0 000-9.21zm16.116 4.604a4.605 4.605 0 100 9.21 4.605 4.605 0 000-9.21zm-27.627 4.605a4.604 4.604 0 100 9.208 4.604 4.604 0 000-9.208zm32.232 11.511a4.605 4.605 0 100 9.21 4.605 4.605 0 000-9.21zm-9.21 11.511a4.605 4.605 0 100 9.21 4.605 4.605 0 000-9.21z" fill="#C7AB89"/></symbol><symbol fill="none" viewBox="0 0 60 60" id="people" xmlns="http://www.w3.org/2000/svg"><path d="M16.667 0a9.167 9.167 0 110 18.334 9.167 9.167 0 010-18.334zm0 3.333a5.833 5.833 0 100 11.667 5.833 5.833 0 000-11.667zm2.276 18.334H5a5 5 0 00-5 5v1.666c0 5.29 4.02 10.707 11.05 12.614a8.38 8.38 0 012.603-2.844C7 37.047 3.333 32.53 3.333 28.333v-1.666A1.666 1.666 0 015 25h12.75c.24-1.18.647-2.3 1.193-3.333zM30 18.333A9.147 9.147 0 0021.18 25a9.173 9.173 0 007.533 11.577 18.208 18.208 0 012.204-3.317 5.833 5.833 0 114.64-3.977 18.25 18.25 0 013.61-1.666V27.5a9.177 9.177 0 00-2.097-5.833A9.15 9.15 0 0030 18.333zm28.923 14.74a18.432 18.432 0 00-2.6-2.493c.227-.743.344-1.5.344-2.247v-1.666A1.666 1.666 0 0055 25H42.25a12.419 12.419 0 00-1.19-3.333H55a5 5 0 015 5v1.666c0 1.6-.367 3.214-1.077 4.74zM27.357 40h-9.024a4.987 4.987 0 00-5 5v1.667C13.333 53.237 19.533 60 30 60c1.403 0 2.733-.123 3.98-.35a18.454 18.454 0 01-3.137-3c-.28.011-.562.017-.843.017-8.56 0-13.333-5.207-13.333-10V45a1.667 1.667 0 011.666-1.667h8.407c.102-1.127.308-2.243.617-3.333zM52.5 9.167a9.167 9.167 0 10-18.333 0 9.167 9.167 0 0018.333 0zm-15 0a5.834 5.834 0 1111.667 0 5.834 5.834 0 01-11.667 0zM45 60a15 15 0 100-30 15 15 0 000 30zm0-23.333a1.667 1.667 0 011.667 1.666v5h5a1.667 1.667 0 010 3.334h-5v5a1.667 1.667 0 01-3.334 0v-5h-5a1.667 1.667 0 010-3.334h5v-5A1.667 1.667 0 0145 36.667z" fill="#C7AB89"/></symbol><symbol viewBox="0 0 26 25" id="telegram" xmlns="http://www.w3.org/2000/svg"><path d="M24.07.996a2.974 2.974 0 00-.933.223h-.004c-.285.113-1.64.683-3.7 1.547l-7.382 3.109c-5.297 2.23-10.504 4.426-10.504 4.426l.062-.024s-.359.118-.734.375c-.232.148-.431.34-.586.567-.184.27-.332.683-.277 1.11.09.722.558 1.155.894 1.394.34.242.664.355.664.355h.008l4.883 1.645c.219.703 1.488 4.875 1.793 5.836.18.574.355.933.574 1.207.106.14.23.257.379.351.077.045.16.08.246.106l-.05-.012c.015.004.027.016.038.02.04.011.067.015.118.023.773.234 1.394-.246 1.394-.246l.035-.028 2.883-2.625 4.832 3.707.11.047c1.007.442 2.027.196 2.566-.238.543-.437.754-.996.754-.996l.035-.09 3.734-19.129c.106-.472.133-.914.016-1.343-.12-.434-.4-.808-.781-1.047a1.872 1.872 0 00-1.067-.27zm-.101 2.05c-.004.063.008.056-.02.177v.011l-3.699 18.93c-.016.027-.043.086-.117.145-.078.062-.14.101-.465-.028l-5.91-4.531-3.57 3.254.75-4.79 9.656-9c.398-.37.265-.448.265-.448.028-.454-.601-.133-.601-.133L8.082 14.176l-.004-.02-5.836-1.965v-.004l-.015-.003a.27.27 0 00.03-.012l.032-.016.031-.011s5.211-2.196 10.508-4.426c2.652-1.117 5.324-2.242 7.379-3.11a807.312 807.312 0 013.66-1.53c.082-.032.043-.032.102-.032v-.001z"/></symbol></svg>