<svg width="133" height="37" viewBox="0 0 133 37" fill="none" xmlns="http://www.w3.org/2000/svg">
<path d="M4.6 9.4V22H3.64V9.04C3.64 8.272 3.472 7.68 3.136 7.264C2.816 6.848 2.264 6.64 1.48 6.64H1.24V6.16H2.8C3.536 6.16 4.16 6.28 4.672 6.52C5.184 6.76 5.64 7.12 6.04 7.6L14.44 18.04V6.16H15.4V22.24H14.92L4.6 9.4ZM32.2171 22.12C31.4491 22.12 30.6891 21.912 29.9371 21.496C29.1851 21.064 28.5851 20.232 28.1371 19L27.5371 17.44H20.8171L18.8971 22H17.8171L24.5371 6.16H25.2571L30.5371 19C30.9371 19.928 31.3131 20.568 31.6651 20.92C32.0171 21.256 32.5211 21.456 33.1771 21.52V22C32.8891 22.08 32.5691 22.12 32.2171 22.12ZM21.1771 16.48H27.0571L24.1771 9.52L21.1771 16.48ZM36.8194 22C36.2274 22 35.7794 21.928 35.4754 21.784C35.1874 21.624 34.9794 21.344 34.8514 20.944C34.7234 20.544 34.6594 19.936 34.6594 19.12V6.16H36.8194V19.12C36.8194 19.936 36.9314 20.544 37.1554 20.944C37.3794 21.328 37.8274 21.52 38.4994 21.52H38.9794V22H36.8194ZM41.9112 9.04C41.9112 8.224 41.7992 7.624 41.5752 7.24C41.3512 6.84 40.9032 6.64 40.2312 6.64H39.7512V6.16H41.9112C42.5032 6.16 42.9432 6.24 43.2312 6.4C43.5352 6.544 43.7512 6.816 43.8792 7.216C44.0072 7.616 44.0712 8.224 44.0712 9.04V21.04H52.5912V22H41.9112V9.04ZM59.518 22.408C58.638 22.408 57.774 22.288 56.926 22.048C56.078 21.808 55.382 21.464 54.838 21.016C54.31 20.568 54.046 20.056 54.046 19.48V16.912H54.478C54.75 18.512 55.278 19.672 56.062 20.392C56.846 21.096 57.926 21.448 59.302 21.448C60.166 21.448 60.902 21.232 61.51 20.8C62.134 20.368 62.446 19.768 62.446 19C62.446 18.328 62.238 17.744 61.822 17.248C61.406 16.752 60.734 16.232 59.806 15.688L56.854 13.936C55.83 13.328 55.102 12.712 54.67 12.088C54.254 11.464 54.046 10.704 54.046 9.808C54.046 8.576 54.47 7.592 55.318 6.856C56.182 6.104 57.31 5.728 58.702 5.728C59.518 5.728 60.326 5.848 61.126 6.088C61.926 6.312 62.582 6.648 63.094 7.096C63.622 7.528 63.886 8.032 63.886 8.608V11.176H63.454C63.182 9.576 62.662 8.432 61.894 7.744C61.142 7.04 60.078 6.688 58.702 6.688C57.966 6.688 57.318 6.912 56.758 7.36C56.198 7.808 55.918 8.392 55.918 9.112C55.918 9.768 56.118 10.312 56.518 10.744C56.934 11.176 57.622 11.68 58.582 12.256L61.534 14.008C62.622 14.664 63.39 15.272 63.838 15.832C64.286 16.392 64.51 17.104 64.51 17.968C64.51 19.312 64.062 20.392 63.166 21.208C62.27 22.008 61.054 22.408 59.518 22.408ZM85.7309 23.08C84.5789 23.08 83.6829 22.904 83.0429 22.552C82.4029 22.2 81.9469 21.656 81.6749 20.92C81.4189 20.168 81.2909 19.168 81.2909 17.92V8.68L75.2909 22H74.8109L68.5709 8.44V22H67.6109V6.16H69.8909L75.6509 18.64L81.2909 6.16H83.4509V17.92C83.4509 19.408 83.6349 20.56 84.0029 21.376C84.3869 22.192 84.9629 22.6 85.7309 22.6V23.08ZM101.006 22.12C100.238 22.12 99.4781 21.912 98.7261 21.496C97.9741 21.064 97.3741 20.232 96.9261 19L96.3261 17.44H89.6061L87.6861 22H86.6061L93.3261 6.16H94.0461L99.3261 19C99.7261 19.928 100.102 20.568 100.454 20.92C100.806 21.256 101.31 21.456 101.966 21.52V22C101.678 22.08 101.358 22.12 101.006 22.12ZM89.9661 16.48H95.8461L92.9661 9.52L89.9661 16.48ZM103.857 9.04C103.857 8.224 103.745 7.624 103.521 7.24C103.297 6.84 102.849 6.64 102.177 6.64H101.697V6.16H107.985C111.089 6.16 113.433 6.848 115.017 8.224C116.617 9.6 117.417 11.52 117.417 13.984C117.417 15.568 117.081 16.968 116.409 18.184C115.737 19.384 114.737 20.32 113.409 20.992C112.097 21.664 110.497 22 108.609 22H103.857V9.04ZM108.537 21.16C109.721 21.16 110.785 20.872 111.729 20.296C112.689 19.704 113.441 18.88 113.984 17.824C114.529 16.752 114.801 15.504 114.801 14.08C114.801 12.688 114.529 11.456 113.984 10.384C113.457 9.312 112.713 8.48 111.753 7.888C110.793 7.296 109.705 7 108.489 7C107.721 7 106.921 7.128 106.089 7.384V20.848C106.985 21.056 107.801 21.16 108.537 21.16ZM120.849 9.04C120.849 8.224 120.737 7.624 120.513 7.24C120.289 6.84 119.841 6.64 119.169 6.64H118.689V6.16H128.913C130.273 6.16 130.953 6.8 130.953 8.08V9.88H130.473C130.473 8.04 129.473 7.12 127.473 7.12H123.009V13.36H129.489V14.32H123.009V21.04H127.209C128.313 21.04 129.177 20.84 129.801 20.44C130.425 20.04 130.921 19.36 131.289 18.4L131.769 18.52L130.929 20.8C130.641 21.6 130.041 22 129.129 22H120.849V9.04Z" fill="#1C1B1B"/>
<path d="M1.81 29.57C1.64333 29.1833 1.48667 28.92 1.34 28.78C1.19333 28.6333 0.983333 28.5467 0.71 28.52V28.32C0.743333 28.32 0.793333 28.3167 0.86 28.31C0.92 28.3033 0.983333 28.3 1.05 28.3C1.38333 28.3 1.70333 28.3867 2.01 28.56C2.31667 28.7267 2.57667 29.0633 2.79 29.57L4.5 33.6L5.09 32.23C5.37 31.5833 5.90667 30.3067 6.7 28.4H7.18L4.31 35.1H4.13L1.81 29.57ZM11.1465 29.7C10.9932 29.7 10.8598 29.6367 10.7465 29.51C10.6398 29.3833 10.5865 29.2333 10.5865 29.06C10.5865 28.92 10.6265 28.81 10.7065 28.73C10.7932 28.65 10.9065 28.61 11.0465 28.61C11.1998 28.61 11.3298 28.6733 11.4365 28.8C11.5498 28.9267 11.6065 29.0767 11.6065 29.25C11.6065 29.39 11.5632 29.5 11.4765 29.58C11.3965 29.66 11.2865 29.7 11.1465 29.7ZM10.7665 31.5C10.7665 31.16 10.7198 30.91 10.6265 30.75C10.5332 30.5833 10.3465 30.5 10.0665 30.5H9.86648V30.3H10.7665C11.0132 30.3 11.1965 30.3333 11.3165 30.4C11.4432 30.46 11.5332 30.5733 11.5865 30.74C11.6398 30.9067 11.6665 31.16 11.6665 31.5V35H10.7665V31.5ZM19.2348 35.1C18.6682 35.1 18.1848 34.8333 17.7848 34.3L16.5848 32.7V35H15.6848V29.6C15.6848 29.26 15.6382 29.01 15.5448 28.85C15.4515 28.6833 15.2648 28.6 14.9848 28.6H14.7848V28.4H15.6848C15.9315 28.4 16.1148 28.4333 16.2348 28.5C16.3615 28.56 16.4515 28.6733 16.5048 28.84C16.5582 29.0067 16.5848 29.26 16.5848 29.6V32.55L17.8348 30.95C18.0082 30.7367 18.1915 30.5767 18.3848 30.47C18.5782 30.3567 18.8282 30.3 19.1348 30.3H19.4348V30.55C19.2548 30.55 19.0815 30.5867 18.9148 30.66C18.7482 30.7333 18.6048 30.8467 18.4848 31L17.3848 32.4L18.6348 34C18.8282 34.2533 19.0082 34.4433 19.1748 34.57C19.3482 34.6967 19.5348 34.7767 19.7348 34.81V35C19.5882 35.0667 19.4215 35.1 19.2348 35.1ZM24.4284 35.1C24.055 35.1 23.7617 34.9933 23.5484 34.78C23.335 34.5667 23.2284 34.24 23.2284 33.8V30.7H22.5284V30.3H23.2284V29.4L23.7284 28.8H24.1284V30.3H25.3284V30.7H24.1284V33.8C24.1284 34.4 24.3617 34.7 24.8284 34.7C24.9884 34.7 25.1217 34.6833 25.2284 34.65C25.3417 34.6167 25.4584 34.5667 25.5784 34.5L25.6784 34.7C25.525 34.8133 25.355 34.91 25.1684 34.99C24.9817 35.0633 24.735 35.1 24.4284 35.1ZM30.8473 35.1C30.3939 35.1 30.0006 34.9933 29.6673 34.78C29.3339 34.56 29.0806 34.2633 28.9073 33.89C28.7339 33.5167 28.6473 33.1033 28.6473 32.65C28.6473 32.1967 28.7339 31.7833 28.9073 31.41C29.0806 31.0367 29.3339 30.7433 29.6673 30.53C30.0006 30.31 30.3939 30.2 30.8473 30.2C31.3006 30.2 31.6939 30.31 32.0273 30.53C32.3606 30.7433 32.6139 31.0367 32.7873 31.41C32.9606 31.7833 33.0473 32.1967 33.0473 32.65C33.0473 33.1033 32.9606 33.5167 32.7873 33.89C32.6139 34.2633 32.3606 34.56 32.0273 34.78C31.6939 34.9933 31.3006 35.1 30.8473 35.1ZM30.8473 34.7C31.0939 34.7 31.3106 34.61 31.4973 34.43C31.6906 34.25 31.8373 34.0033 31.9373 33.69C32.0439 33.3767 32.0973 33.03 32.0973 32.65C32.0973 32.27 32.0439 31.9233 31.9373 31.61C31.8373 31.2967 31.6906 31.05 31.4973 30.87C31.3106 30.69 31.0939 30.6 30.8473 30.6C30.6006 30.6 30.3806 30.69 30.1873 30.87C30.0006 31.05 29.8539 31.2967 29.7473 31.61C29.6473 31.9233 29.5973 32.27 29.5973 32.65C29.5973 33.03 29.6473 33.3767 29.7473 33.69C29.8539 34.0033 30.0006 34.25 30.1873 34.43C30.3806 34.61 30.6006 34.7 30.8473 34.7ZM36.8 31.5C36.8 31.16 36.7533 30.91 36.66 30.75C36.5667 30.5833 36.38 30.5 36.1 30.5H36V30.3H36.8C37.0533 30.3 37.2433 30.3367 37.37 30.41C37.5033 30.4767 37.5967 30.59 37.65 30.75H37.7C37.82 30.5967 37.98 30.4667 38.18 30.36C38.3867 30.2533 38.6267 30.2 38.9 30.2C39.1667 30.2 39.3667 30.25 39.5 30.35C39.6133 30.4367 39.73 30.5867 39.85 30.8L39.45 31.1C39.3767 31 39.27 30.9267 39.13 30.88C38.99 30.8267 38.83 30.8 38.65 30.8C38.45 30.8 38.2667 30.8467 38.1 30.94C37.9333 31.0267 37.8 31.1467 37.7 31.3V35H36.8V31.5ZM43.7246 29.7C43.5713 29.7 43.4379 29.6367 43.3246 29.51C43.2179 29.3833 43.1646 29.2333 43.1646 29.06C43.1646 28.92 43.2046 28.81 43.2846 28.73C43.3713 28.65 43.4846 28.61 43.6246 28.61C43.7779 28.61 43.9079 28.6733 44.0146 28.8C44.1279 28.9267 44.1846 29.0767 44.1846 29.25C44.1846 29.39 44.1413 29.5 44.0546 29.58C43.9746 29.66 43.8646 29.7 43.7246 29.7ZM43.3446 31.5C43.3446 31.16 43.2979 30.91 43.2046 30.75C43.1113 30.5833 42.9246 30.5 42.6446 30.5H42.4446V30.3H43.3446C43.5913 30.3 43.7746 30.3333 43.8946 30.4C44.0213 30.46 44.1113 30.5733 44.1646 30.74C44.2179 30.9067 44.2446 31.16 44.2446 31.5V35H43.3446V31.5ZM49.2755 35.1C49.0622 35.1 48.8455 35.0567 48.6255 34.97C48.4055 34.8767 48.2155 34.7267 48.0555 34.52C47.9022 34.3133 47.8255 34.04 47.8255 33.7C47.8255 33.1933 48.0589 32.8333 48.5255 32.62C48.9989 32.4067 49.6155 32.3 50.3755 32.3H50.6755C50.6755 31.6467 50.5855 31.2 50.4055 30.96C50.2255 30.72 49.9655 30.6 49.6255 30.6C49.3255 30.6 49.0855 30.6633 48.9055 30.79C48.7255 30.9167 48.5989 31.1367 48.5255 31.45H48.0755C48.0755 31.2233 48.0889 31.0467 48.1155 30.92C48.1422 30.7867 48.2122 30.6633 48.3255 30.55C48.4455 30.43 48.6422 30.3433 48.9155 30.29C49.1955 30.23 49.4989 30.2 49.8255 30.2C50.3655 30.2 50.7922 30.3467 51.1055 30.64C51.4189 30.9267 51.5755 31.48 51.5755 32.3V35H51.0755L50.7255 34.55H50.6755C50.5555 34.7033 50.3789 34.8333 50.1455 34.94C49.9122 35.0467 49.6222 35.1 49.2755 35.1ZM49.7255 34.65C49.9455 34.65 50.1289 34.5967 50.2755 34.49C50.4222 34.3833 50.5555 34.2367 50.6755 34.05V32.7H50.3755C49.8822 32.7 49.4922 32.7933 49.2055 32.98C48.9189 33.16 48.7755 33.4 48.7755 33.7C48.7755 34.0067 48.8655 34.2433 49.0455 34.41C49.2322 34.57 49.4589 34.65 49.7255 34.65ZM65.96 35.1C65.6467 35.1 65.32 35.0167 64.98 34.85C64.64 34.6767 64.25 34.36 63.81 33.9L61.71 31.7V35H60.81V29.6C60.81 29.26 60.7633 29.01 60.67 28.85C60.5767 28.6833 60.39 28.6 60.11 28.6H59.91V28.4H60.81C61.0567 28.4 61.24 28.4333 61.36 28.5C61.4867 28.56 61.5767 28.6733 61.63 28.84C61.6833 29.0067 61.71 29.26 61.71 29.6V31.55L63.81 29.45L64.01 29.24C64.1967 29.0467 64.3533 28.8967 64.48 28.79C64.6067 28.6767 64.7567 28.5833 64.93 28.51C65.1033 28.4367 65.2967 28.4 65.51 28.4H66.01V28.65C65.73 28.65 65.4867 28.7 65.28 28.8C65.0733 28.8933 64.8333 29.0767 64.56 29.35L62.61 31.3L64.91 33.7C65.2033 34 65.5 34.2533 65.8 34.46C66.1 34.66 66.37 34.7767 66.61 34.81V35C66.41 35.0667 66.1933 35.1 65.96 35.1ZM71.2913 35.1C70.7913 35.1 70.3813 34.9667 70.0613 34.7C69.748 34.4333 69.5913 33.9667 69.5913 33.3V31.5C69.5913 31.16 69.5447 30.91 69.4513 30.75C69.358 30.5833 69.1713 30.5 68.8913 30.5H68.7913V30.3H69.5913C69.838 30.3 70.0213 30.3333 70.1413 30.4C70.268 30.46 70.358 30.5733 70.4113 30.74C70.4647 30.9067 70.4913 31.16 70.4913 31.5V33.3C70.4913 33.7667 70.5947 34.11 70.8013 34.33C71.0147 34.5433 71.278 34.65 71.5913 34.65C71.9447 34.65 72.278 34.4733 72.5913 34.12V30.3H73.4913V35H72.9913L72.6413 34.6H72.5913C72.4513 34.74 72.268 34.86 72.0413 34.96C71.8213 35.0533 71.5713 35.1 71.2913 35.1ZM77.1529 34.81L79.7529 30.7H78.6029C78.1896 30.7 77.8762 30.78 77.6629 30.94C77.4562 31.0933 77.3529 31.3133 77.3529 31.6H77.1529V31.1C77.1529 30.5667 77.4362 30.3 78.0029 30.3H81.0529L78.3529 34.6H81.0529V35H77.1529V34.81ZM84.7411 31.5C84.7411 31.16 84.6944 30.91 84.6011 30.75C84.5078 30.5833 84.3211 30.5 84.0411 30.5H83.8411V30.3H84.7411C84.9878 30.3 85.1744 30.3333 85.3011 30.4C85.4344 30.4667 85.5311 30.5667 85.5911 30.7H85.6411C85.7811 30.56 85.9611 30.4433 86.1811 30.35C86.4078 30.25 86.6611 30.2 86.9411 30.2C87.4411 30.2 87.8478 30.3333 88.1611 30.6C88.4811 30.8667 88.6411 31.3333 88.6411 32V35H87.7411V32C87.7411 31.5333 87.6344 31.1933 87.4211 30.98C87.2144 30.76 86.9544 30.65 86.6411 30.65C86.2878 30.65 85.9544 30.8267 85.6411 31.18V35H84.7411V31.5ZM94.3605 35.1C93.9072 35.1 93.5239 34.9933 93.2105 34.78C92.8972 34.56 92.6605 34.2667 92.5005 33.9C92.3405 33.5267 92.2605 33.11 92.2605 32.65C92.2605 32.1967 92.3405 31.7833 92.5005 31.41C92.6605 31.0367 92.8905 30.7433 93.1905 30.53C93.4972 30.31 93.8539 30.2 94.2605 30.2C94.9339 30.2 95.4339 30.39 95.7605 30.77C96.0939 31.1433 96.2605 31.6867 96.2605 32.4L96.2405 32.8H93.2105C93.2105 33.36 93.3305 33.8167 93.5705 34.17C93.8105 34.5233 94.1405 34.7 94.5605 34.7C94.8739 34.7 95.1372 34.6333 95.3505 34.5C95.5705 34.3667 95.7739 34.1667 95.9605 33.9L96.1605 34.05C95.9405 34.4167 95.6839 34.6833 95.3905 34.85C95.0972 35.0167 94.7539 35.1 94.3605 35.1ZM95.3105 32.4C95.3105 31.8133 95.2239 31.3667 95.0505 31.06C94.8772 30.7533 94.6139 30.6 94.2605 30.6C94.0605 30.6 93.8805 30.68 93.7205 30.84C93.5605 30.9933 93.4339 31.2067 93.3405 31.48C93.2539 31.7533 93.2105 32.06 93.2105 32.4H95.3105ZM101.303 35.1C100.93 35.1 100.637 34.9933 100.423 34.78C100.21 34.5667 100.103 34.24 100.103 33.8V30.7H99.4034V30.3H100.103V29.4L100.603 28.8H101.003V30.3H102.203V30.7H101.003V33.8C101.003 34.4 101.237 34.7 101.703 34.7C101.863 34.7 101.997 34.6833 102.103 34.65C102.217 34.6167 102.333 34.5667 102.453 34.5L102.553 34.7C102.4 34.8133 102.23 34.91 102.043 34.99C101.857 35.0633 101.61 35.1 101.303 35.1ZM107.362 35.1C106.596 35.1 106.079 34.9667 105.812 34.7C105.699 34.5867 105.629 34.46 105.602 34.32C105.576 34.1733 105.562 33.95 105.562 33.65H105.762C105.822 33.9833 105.966 34.2433 106.192 34.43C106.426 34.61 106.749 34.7 107.162 34.7C107.529 34.7 107.802 34.6367 107.982 34.51C108.169 34.3833 108.262 34.2133 108.262 34C108.262 33.8067 108.189 33.64 108.042 33.5C107.902 33.36 107.676 33.2267 107.362 33.1L106.762 32.85C106.362 32.69 106.062 32.5033 105.862 32.29C105.662 32.0767 105.562 31.8133 105.562 31.5C105.562 31.0933 105.716 30.7767 106.022 30.55C106.329 30.3167 106.726 30.2 107.212 30.2C107.946 30.2 108.446 30.3333 108.712 30.6C108.826 30.7133 108.896 30.84 108.922 30.98C108.949 31.12 108.962 31.3433 108.962 31.65H108.762C108.709 31.3167 108.569 31.06 108.342 30.88C108.116 30.6933 107.806 30.6 107.412 30.6C107.099 30.6 106.852 30.6667 106.672 30.8C106.499 30.9267 106.412 31.0933 106.412 31.3C106.412 31.6467 106.679 31.93 107.212 32.15L107.812 32.4C108.266 32.5867 108.596 32.7867 108.802 33C109.009 33.2067 109.112 33.4733 109.112 33.8C109.112 34.2067 108.949 34.5267 108.622 34.76C108.296 34.9867 107.876 35.1 107.362 35.1ZM114.685 35.1C114.232 35.1 113.838 34.9933 113.505 34.78C113.172 34.56 112.918 34.2633 112.745 33.89C112.572 33.5167 112.485 33.1033 112.485 32.65C112.485 32.1967 112.572 31.7833 112.745 31.41C112.918 31.0367 113.172 30.7433 113.505 30.53C113.838 30.31 114.232 30.2 114.685 30.2C115.138 30.2 115.532 30.31 115.865 30.53C116.198 30.7433 116.452 31.0367 116.625 31.41C116.798 31.7833 116.885 32.1967 116.885 32.65C116.885 33.1033 116.798 33.5167 116.625 33.89C116.452 34.2633 116.198 34.56 115.865 34.78C115.532 34.9933 115.138 35.1 114.685 35.1ZM114.685 34.7C114.932 34.7 115.148 34.61 115.335 34.43C115.528 34.25 115.675 34.0033 115.775 33.69C115.882 33.3767 115.935 33.03 115.935 32.65C115.935 32.27 115.882 31.9233 115.775 31.61C115.675 31.2967 115.528 31.05 115.335 30.87C115.148 30.69 114.932 30.6 114.685 30.6C114.438 30.6 114.218 30.69 114.025 30.87C113.838 31.05 113.692 31.2967 113.585 31.61C113.485 31.9233 113.435 32.27 113.435 32.65C113.435 33.03 113.485 33.3767 113.585 33.69C113.692 34.0033 113.838 34.25 114.025 34.43C114.218 34.61 114.438 34.7 114.685 34.7ZM120.701 31.45C120.541 31.0767 120.388 30.8167 120.241 30.67C120.094 30.5167 119.901 30.4333 119.661 30.42V30.22C119.694 30.22 119.741 30.2167 119.801 30.21C119.868 30.2033 119.934 30.2 120.001 30.2C120.354 30.2 120.674 30.29 120.961 30.47C121.248 30.6433 121.494 30.97 121.701 31.45L122.601 33.6L124.001 30.3H124.501L122.451 35.1H122.251L120.701 31.45ZM129.022 35.1C128.808 35.1 128.592 35.0567 128.372 34.97C128.152 34.8767 127.962 34.7267 127.802 34.52C127.648 34.3133 127.572 34.04 127.572 33.7C127.572 33.1933 127.805 32.8333 128.272 32.62C128.745 32.4067 129.362 32.3 130.122 32.3H130.422C130.422 31.6467 130.332 31.2 130.152 30.96C129.972 30.72 129.712 30.6 129.372 30.6C129.072 30.6 128.832 30.6633 128.652 30.79C128.472 30.9167 128.345 31.1367 128.272 31.45H127.822C127.822 31.2233 127.835 31.0467 127.862 30.92C127.888 30.7867 127.958 30.6633 128.072 30.55C128.192 30.43 128.388 30.3433 128.662 30.29C128.942 30.23 129.245 30.2 129.572 30.2C130.112 30.2 130.538 30.3467 130.852 30.64C131.165 30.9267 131.322 31.48 131.322 32.3V35H130.822L130.472 34.55H130.422C130.302 34.7033 130.125 34.8333 129.892 34.94C129.658 35.0467 129.368 35.1 129.022 35.1ZM129.472 34.65C129.692 34.65 129.875 34.5967 130.022 34.49C130.168 34.3833 130.302 34.2367 130.422 34.05V32.7H130.122C129.628 32.7 129.238 32.7933 128.952 32.98C128.665 33.16 128.522 33.4 128.522 33.7C128.522 34.0067 128.612 34.2433 128.792 34.41C128.978 34.57 129.205 34.65 129.472 34.65Z" fill="#1C1B1B"/>
</svg>
