<svg width="61" height="60" fill="none" xmlns="http://www.w3.org/2000/svg"><path d="M41.063 0l-1.522 1.659-3.731 3.937h-7.95v7.742l-3.802 4.01-1.52 1.591 4.84 4.84L1.59 49.63 0 51.22l1.593 1.52L8.848 60l1.522-1.593 25.853-25.78 4.838 4.837 1.59-1.521 4.008-3.8h7.742v-7.95l3.942-3.734 1.66-1.52-5.602-5.598V5.599H46.66L41.064 0zm.069 6.357L44.173 9.4l.693.624h5.114v5.114l.623.692 3.042 3.041-2.973 2.834-.692.622v5.392h-5.114l-.624.622-3.11 2.973-1.796-1.798 10.022-10.023-8.78-8.78-1.587 1.523-8.435 8.502-1.867-1.867 2.973-3.11.622-.623v-5.114h5.393l.621-.693 2.834-2.973zm-.553 10.578l2.488 2.557L8.852 53.778 6.293 51.22 40.58 16.935zm-3.663 23.847v2.212h-2.212v4.424h2.212v2.212h4.424v-2.212h2.212v-4.424H41.34v-2.212h-4.424zm13.272 4.424v4.424h-4.424v4.424h4.424v4.424h4.424v-4.424h4.424V49.63h-4.424v-4.424h-4.424z" fill="#C7AB89"/></svg>