<svg width="60" height="60" viewBox="0 0 60 60" fill="none" xmlns="http://www.w3.org/2000/svg">
<path d="M29.0653 0.00835814C27.8428 0.0428919 26.5835 0.178725 25.3241 0.367509H25.2528C12.9933 2.37277 3.06365 12.0307 0.570309 24.2534C-0.173319 27.7344 -0.129576 30.9806 0.356199 34.183C0.374617 34.1899 0.356199 34.236 0.356199 34.2521C1.11134 39.6578 8.1263 42.0245 12.0839 38.0669C14.9156 35.2351 19.1057 35.2351 21.9398 38.0669C24.7716 40.8987 24.7716 45.0888 21.9398 47.9228C17.9822 51.8804 20.349 58.8954 25.7523 59.6505C25.7708 59.6505 25.8168 59.6321 25.8237 59.6505C29.0008 60.134 32.2286 60.1639 35.682 59.4341H35.7533C48.0105 57.1503 57.6432 46.9881 59.6392 34.7586V34.6849C62.2477 17.0957 49.3873 1.73505 32.6591 0.151097C31.4647 0.0267532 30.2635 -0.020924 29.063 0.00835814H29.0653ZM29.1367 4.61286C30.1686 4.57337 31.2019 4.59721 32.2309 4.68423C35.7026 5.00618 39.0717 6.03559 42.1305 7.70906C45.1893 9.38252 47.873 11.6646 50.0163 14.4146C52.1597 17.1647 53.7172 20.3245 54.5929 23.6994C55.4687 27.0743 55.6441 30.5927 55.1084 34.038C53.4277 44.3451 45.1626 53.0131 34.8923 54.9033H34.8209C32.0522 55.4978 29.1969 55.5705 26.4016 55.1174C24.5137 54.8849 23.6412 52.7691 25.1814 51.2335C26.259 50.1567 27.1139 48.8782 27.6972 47.4709C28.2805 46.0636 28.5807 44.5551 28.5807 43.0317C28.5807 41.5083 28.2805 39.9999 27.6972 38.5925C27.1139 37.1852 26.259 35.9067 25.1814 34.8299C24.1046 33.7519 22.8259 32.8967 21.4184 32.3133C20.0109 31.7298 18.5021 31.4295 16.9785 31.4295C15.4548 31.4295 13.9461 31.7298 12.5386 32.3133C11.131 32.8967 9.85232 33.7519 8.77554 34.8299C7.23763 36.3678 5.12416 35.4953 4.89164 33.6051C4.43885 30.8106 4.51147 27.956 5.10575 25.1881C7.21921 14.8556 15.6639 6.58129 25.9711 4.90064C27.0508 4.73949 28.0937 4.6474 29.1367 4.61286ZM25.3955 9.28874C24.1743 9.28874 23.0031 9.77386 22.1396 10.6374C21.2761 11.5009 20.791 12.6721 20.791 13.8932C20.791 15.1144 21.2761 16.2856 22.1396 17.1491C23.0031 18.0126 24.1743 18.4978 25.3955 18.4978C26.6167 18.4978 27.7879 18.0126 28.6514 17.1491C29.5149 16.2856 30 15.1144 30 13.8932C30 12.6721 29.5149 11.5009 28.6514 10.6374C27.7879 9.77386 26.6167 9.28874 25.3955 9.28874ZM41.5113 13.8932C40.2901 13.8932 39.1189 14.3784 38.2554 15.2419C37.3919 16.1054 36.9068 17.2766 36.9068 18.4978C36.9068 19.7189 37.3919 20.8901 38.2554 21.7536C39.1189 22.6171 40.2901 23.1023 41.5113 23.1023C42.7325 23.1023 43.9036 22.6171 44.7671 21.7536C45.6307 20.8901 46.1158 19.7189 46.1158 18.4978C46.1158 17.2766 45.6307 16.1054 44.7671 15.2419C43.9036 14.3784 42.7325 13.8932 41.5113 13.8932ZM13.8842 18.4978C12.663 18.4978 11.4919 18.9829 10.6284 19.8464C9.76485 20.7099 9.27973 21.8811 9.27973 23.1023C9.27973 24.3234 9.76485 25.4946 10.6284 26.3581C11.4919 27.2216 12.663 27.7068 13.8842 27.7068C15.1054 27.7068 16.2766 27.2216 17.1401 26.3581C18.0036 25.4946 18.4887 24.3234 18.4887 23.1023C18.4887 21.8811 18.0036 20.7099 17.1401 19.8464C16.2766 18.9829 15.1054 18.4978 13.8842 18.4978ZM46.1158 30.009C44.8946 30.009 43.7234 30.4941 42.8599 31.3576C41.9964 32.2212 41.5113 33.3923 41.5113 34.6135C41.5113 35.8347 41.9964 37.0059 42.8599 37.8694C43.7234 38.7329 44.8946 39.218 46.1158 39.218C47.337 39.218 48.5081 38.7329 49.3717 37.8694C50.2352 37.0059 50.7203 35.8347 50.7203 34.6135C50.7203 33.3923 50.2352 32.2212 49.3717 31.3576C48.5081 30.4941 47.337 30.009 46.1158 30.009ZM36.9068 41.5203C35.6856 41.5203 34.5144 42.0054 33.6509 42.8689C32.7874 43.7324 32.3023 44.9036 32.3023 46.1248C32.3023 47.346 32.7874 48.5171 33.6509 49.3807C34.5144 50.2442 35.6856 50.7293 36.9068 50.7293C38.128 50.7293 39.2991 50.2442 40.1626 49.3807C41.0262 48.5171 41.5113 47.346 41.5113 46.1248C41.5113 44.9036 41.0262 43.7324 40.1626 42.8689C39.2991 42.0054 38.128 41.5203 36.9068 41.5203Z" fill="#C7AB89"/>
</svg>
